<svg width="19" height="19" viewBox="0 0 19 19" fill="none" xmlns="http://www.w3.org/2000/svg">
<path fill-rule="evenodd" clip-rule="evenodd" d="M0.5 5.5C0.5 2.739 2.739 0.5 5.5 0.5H13.5C16.261 0.5 18.5 2.739 18.5 5.5V13.5C18.5 16.261 16.261 18.5 13.5 18.5H5.5C2.739 18.5 0.5 16.261 0.5 13.5V5.5ZM16.5 3.5C16.5 2.948 16.052 2.5 15.5 2.5C14.948 2.5 14.5 2.948 14.5 3.5C14.5 4.052 14.948 4.5 15.5 4.5C16.052 4.5 16.5 4.052 16.5 3.5ZM9.5 4.5C12.261 4.5 14.5 6.739 14.5 9.5C14.5 12.261 12.261 14.5 9.5 14.5C6.739 14.5 4.5 12.261 4.5 9.5C4.5 6.739 6.739 4.5 9.5 4.5ZM6.5 9.5C6.5 7.84315 7.84315 6.5 9.5 6.5C11.1569 6.5 12.5 7.84315 12.5 9.5C12.5 11.1569 11.1569 12.5 9.5 12.5C7.84315 12.5 6.5 11.1569 6.5 9.5Z" fill="black"/>
</svg>
