<svg width="34" height="15" viewBox="0 0 34 15" fill="none" xmlns="http://www.w3.org/2000/svg">
<path d="M11.8728 3.78451L11.8728 3.78453L11.8744 3.7844L14.0545 3.61587C14.1622 3.61685 14.2492 3.67519 14.3126 3.77294C14.3775 3.87287 14.4136 4.00922 14.4136 4.14524C14.4136 4.27615 14.3839 4.39766 14.3256 4.48566C14.2692 4.57085 14.1849 4.62736 14.0628 4.63317L13.9861 4.63681L13.9905 4.71347C14.003 4.92907 14.0175 5.15543 14.0326 5.39004C14.0856 6.21551 14.1451 7.14306 14.1451 8.06269C14.1451 9.53288 14.0111 11.0096 13.5349 12.127C13.2973 12.6847 12.9758 13.1495 12.5464 13.48C12.1179 13.8097 11.5775 14.0093 10.8951 14.0303H10.7838C9.21249 14.0303 7.85774 12.8605 7.85774 11.2603V11.0932C7.86391 10.9981 7.91236 10.9327 7.99769 10.8873C8.08784 10.8394 8.21808 10.8153 8.37434 10.8153C8.64368 10.8153 8.97131 10.8934 9.23087 11.0094C9.36056 11.0674 9.4693 11.1331 9.54428 11.2C9.62132 11.2688 9.65103 11.328 9.65103 11.3728V11.5985C9.65103 11.9693 9.70386 12.322 9.87251 12.5837C10.0453 12.8519 10.332 13.0131 10.769 13.0131H10.8541V13.0132L10.8568 13.0131C11.5153 12.9898 11.9042 12.4397 12.1279 11.6833C12.353 10.9221 12.4234 9.91631 12.4234 8.90717C12.4234 8.05236 12.374 7.19094 12.323 6.4647C12.3065 6.22913 12.2898 6.0083 12.2746 5.80666C12.2427 5.38453 12.2172 5.0465 12.2124 4.83333L12.2106 4.75229L12.1299 4.7593L11.964 4.7737C11.8594 4.77244 11.7653 4.70704 11.6934 4.59423C11.6209 4.48062 11.5789 4.32943 11.5789 4.18744C11.5789 4.07856 11.6047 3.97849 11.6537 3.90633C11.701 3.83672 11.7713 3.79015 11.8728 3.78451Z" fill="white" stroke="white" stroke-width="0.152004"/>
<path d="M18.8355 3.91451V3.91478L18.9005 3.92433C20.7668 4.19886 22.2307 6.18112 22.2307 8.82202C22.2307 11.4632 20.6546 13.5969 18.7095 13.7619L18.4168 13.7764C17.129 13.7757 16.2032 13.0096 15.5954 12.0009C14.9867 10.9905 14.7044 9.74664 14.7044 8.82202C14.7044 7.89791 14.997 6.65771 15.6059 5.65061C16.2144 4.64429 17.1305 3.88231 18.3765 3.88231C18.5207 3.88231 18.6772 3.89343 18.8355 3.91451ZM18.9069 0.856798L18.9069 0.856811L18.9078 0.85504C18.9742 0.728885 19.0445 0.648402 19.1162 0.59931C19.1869 0.550875 19.2633 0.529982 19.3481 0.529982C19.5331 0.529982 19.7533 0.6284 19.9868 0.791577C20.0356 0.840228 20.0642 0.881408 20.0757 0.940353V0.974984C20.0757 1.00726 20.0597 1.04481 20.0368 1.08162C19.9572 1.15532 19.8557 1.28183 19.7454 1.43215C19.6302 1.58907 19.5017 1.77726 19.373 1.97035C19.2811 2.10815 19.1893 2.24809 19.1019 2.38131C18.9433 2.62303 18.7993 2.84263 18.6956 2.98714C18.6676 3.02416 18.6338 3.04117 18.5874 3.04117C18.5455 3.04117 18.5058 3.03127 18.4643 3.00012L18.4643 3.00006L18.4614 2.9981L18.067 2.7296L18.067 2.7296L18.0662 2.72904C18.0017 2.68642 17.973 2.62549 17.973 2.56677C17.973 2.54133 17.9819 2.51173 17.9923 2.48877L18.9069 0.856798ZM16.6793 8.82139C16.6793 9.9466 16.9497 10.8221 17.3565 11.4187C17.7631 12.0149 18.3092 12.336 18.8553 12.336C19.3792 12.336 19.8905 12.0429 20.2675 11.4586C20.644 10.8752 20.8887 9.99982 20.8887 8.82139C20.8887 7.64364 20.6551 6.77195 20.284 6.19209C19.9117 5.61041 19.4 5.32209 18.8553 5.32209C18.3096 5.32209 17.7634 5.63895 17.3566 6.23152C16.9497 6.82438 16.6793 7.69617 16.6793 8.82139Z" fill="white" stroke="white" stroke-width="0.152004"/>
<path d="M22.1305 3.90264L22.1305 3.90263C21.8603 3.89815 21.5911 3.8924 21.3199 3.88346H21.3071C21.2038 3.88346 21.1233 3.93618 21.0656 4.02508C21.0065 4.11587 20.974 4.24159 20.974 4.37129C20.974 4.50096 21.0067 4.63471 21.0672 4.73525C21.1271 4.83478 21.2093 4.89527 21.3106 4.90076C22.0267 4.92947 22.7306 4.94287 23.448 4.94287H23.5281L23.5239 5.02289C23.5124 5.2396 23.501 5.45282 23.4897 5.66311C23.4038 7.25886 23.3271 8.68581 23.3271 10.1906C23.3271 11.2312 23.3546 12.3144 23.4541 13.4943L23.4543 13.4967L23.4542 13.4967C23.4583 13.5738 23.531 13.653 23.7027 13.7148C23.8676 13.7741 24.094 13.8051 24.3353 13.8051C24.6105 13.8051 24.8931 13.7604 25.1041 13.677C25.3226 13.5906 25.4298 13.4782 25.4298 13.3607V13.3349C25.3026 11.6861 25.2329 10.0505 25.2329 8.41467C25.2329 7.2717 25.2604 6.14406 25.3167 5.00107L25.3202 4.93026L25.3911 4.92882C26.082 4.91476 26.7575 4.90007 27.4328 4.87263C27.5343 4.86714 27.6123 4.80947 27.668 4.71299C27.7248 4.61465 27.7548 4.4807 27.7548 4.34252C27.7548 4.20421 27.7248 4.07939 27.6682 3.99175C27.6136 3.90736 27.5342 3.85597 27.4217 3.85597H27.3915C27.0935 3.86716 26.7957 3.8759 26.4978 3.8828L22.1305 3.90264ZM22.1305 3.90264H22.1317M22.1305 3.90264H22.1317M22.1317 3.90264H22.1324C22.7202 3.91159 23.3054 3.91159 23.8848 3.91159H23.8853C24.7622 3.91159 25.6309 3.90327 26.4978 3.8828L22.1317 3.90264ZM21.6076 4.4007C21.6076 4.63318 21.7951 4.82063 22.0275 4.82063C22.26 4.82063 22.4475 4.63318 22.4475 4.4007C22.4475 4.19346 22.2982 4.02119 22.0999 3.98794C22.0741 3.98207 22.0487 3.98077 22.0275 3.98077C21.7951 3.98077 21.6076 4.16822 21.6076 4.4007ZM26.1797 4.4007C26.1797 4.63336 26.3686 4.82063 26.5996 4.82063C26.8321 4.82063 27.0195 4.63318 27.0195 4.4007C27.0195 4.16822 26.8321 3.98077 26.5996 3.98077C26.5778 3.98077 26.5562 3.98225 26.5338 3.98632C26.3346 4.01795 26.1797 4.19069 26.1797 4.4007Z" fill="white" stroke="white" stroke-width="0.152004"/>
<path d="M30.7475 2.45378L30.709 2.46369L29.807 0.829075L29.8063 0.827753L29.8063 0.827746C29.7401 0.701964 29.6669 0.62114 29.592 0.571614C29.5176 0.52247 29.4374 0.501417 29.3519 0.501417C29.1665 0.501417 28.9581 0.601025 28.7215 0.767967C28.6638 0.814893 28.6359 0.854606 28.6257 0.910638V0.94642C28.6257 0.978249 28.6418 1.01581 28.6725 1.0468C28.6727 1.047 28.6729 1.04719 28.6731 1.04738L28.6193 1.10112C28.8053 1.27822 29.1812 1.85305 29.5084 2.35338C29.6773 2.61159 29.8332 2.84996 29.9433 3.00359L30.7475 2.45378ZM30.7475 2.45378L30.7218 2.47943C30.7208 2.47838 30.723 2.47932 30.7248 2.48968C30.7269 2.50131 30.7271 2.51561 30.7271 2.5382C30.7271 2.59597 30.6986 2.65683 30.6344 2.70105C30.6343 2.70111 30.6342 2.70117 30.6341 2.70122L30.2389 2.96809L30.2389 2.96802L30.2358 2.97028C30.1943 3.00143 30.1546 3.01133 30.1127 3.01133C30.0652 3.01133 30.0319 2.99478 30.0045 2.9586L30.7475 2.45378ZM30.1823 3.69969C31.2029 3.69969 32.4036 4.60509 32.9321 6.76001H32.9318L32.953 6.85295C33.3179 8.45001 33.4453 10.6119 33.4453 13.1763C33.4453 13.367 33.3825 13.5157 33.2443 13.6418L33.2443 13.6418L33.2419 13.6442C33.1022 13.7838 32.9385 13.8463 32.7465 13.8463H32.3508C31.968 13.8463 31.652 13.5394 31.652 13.1763V12.1196V12.0452L31.5776 12.0436L28.2527 11.9726L28.1764 11.971L28.1751 12.0474L28.1611 12.8931L28.161 12.8931L28.1611 12.8962L28.1751 13.4732C28.1749 13.6437 28.1003 13.7618 27.9893 13.84C27.8751 13.9203 27.7192 13.9601 27.5613 13.9601C27.418 13.9601 27.2738 13.9237 27.1679 13.8597C27.0624 13.7959 27.0038 13.7113 27.0039 13.6129L27.0038 13.6105C26.9904 13.1894 26.9904 12.6417 26.9904 12.0211V11.9535L26.9233 11.9457C26.837 11.9355 26.767 11.8779 26.716 11.7762C26.6646 11.6738 26.6375 11.5351 26.6375 11.3876C26.6375 11.2413 26.6677 11.0996 26.7253 10.9938C26.7823 10.8891 26.8621 10.8253 26.9641 10.8143L27.0287 10.8074L27.0319 10.7425C27.1021 9.31492 27.278 7.71275 27.6874 6.39396C28.0982 5.0706 28.7357 4.05909 29.7103 3.76773C29.86 3.72698 30.0222 3.69969 30.1823 3.69969ZM28.234 10.7636L28.23 10.8418L28.3083 10.8435L31.5347 10.9132L31.6155 10.9149L31.6123 10.8341C31.5547 9.41046 31.4286 8.19269 31.2015 7.22903C31.0596 6.51473 30.8921 6.00628 30.7089 5.6708C30.5271 5.33786 30.3192 5.15704 30.0896 5.13968L30.0896 5.13946H30.0839H30.0417C29.7044 5.13946 29.4343 5.36004 29.2197 5.69959C29.0047 6.03984 28.835 6.51455 28.7005 7.05919C28.4311 8.14968 28.2971 9.5435 28.234 10.7636Z" fill="white" stroke="white" stroke-width="0.152004"/>
<path fill-rule="evenodd" clip-rule="evenodd" d="M22.2562 4.72804C22.2562 4.728 22.2562 4.72794 22.0294 4.70381C21.8027 4.67968 21.8027 4.6796 21.8027 4.67951L21.8028 4.67856L21.8031 4.67627L21.804 4.6683C21.8048 4.6615 21.806 4.65175 21.8075 4.63924C21.8107 4.61424 21.8156 4.57819 21.8224 4.53268C21.836 4.44171 21.8577 4.31263 21.8899 4.15809C21.9541 3.84995 22.0611 3.43598 22.2327 3.01942C22.5679 2.20567 23.1956 1.28073 24.3219 1.28073C25.4486 1.28073 26.0724 2.20635 26.404 3.02026C26.5737 3.43689 26.6789 3.85091 26.7417 4.15907C26.7731 4.31363 26.7942 4.44272 26.8074 4.53369C26.814 4.57921 26.8187 4.61526 26.8218 4.64027C26.8233 4.65278 26.8244 4.66253 26.8252 4.66933L26.8261 4.6773L26.8263 4.67959L26.8264 4.68029C26.8264 4.68039 26.8264 4.68071 26.5996 4.70381C26.3727 4.72691 26.3728 4.72697 26.3728 4.72701L26.3726 4.72568L26.372 4.71995C26.3714 4.71467 26.3705 4.70648 26.3691 4.69559C26.3665 4.67379 26.3622 4.6412 26.3562 4.59935C26.344 4.51559 26.3243 4.39507 26.2948 4.25009C26.2356 3.95917 26.1374 3.57442 25.9817 3.19229C25.6625 2.40866 25.1474 1.73674 24.3219 1.73674C23.4958 1.73674 22.9772 2.40934 22.6543 3.19312C22.4969 3.57533 22.3969 3.96014 22.3363 4.25107C22.3061 4.39606 22.2859 4.5166 22.2733 4.60036C22.2671 4.64222 22.2627 4.67482 22.2599 4.69661C22.2586 4.70751 22.2576 4.71569 22.257 4.72098L22.2563 4.72671L22.2562 4.72804Z" fill="white" stroke="white" stroke-width="0.456013" stroke-miterlimit="10"/>
<path fill-rule="evenodd" clip-rule="evenodd" d="M9.89989 4.19362C9.56839 3.86525 9.11256 3.49616 8.39856 3.65722C8.37198 3.66321 8.34338 3.66929 8.31378 3.67557C8.23515 3.69227 8.1495 3.71046 8.07608 3.73263L8.07459 3.73308L8.07313 3.73359C7.64263 3.88298 7.30745 4.20591 7.06518 4.69112C6.82566 5.16494 6.65139 5.72073 6.54127 6.35738L6.54117 6.35793C6.44046 6.9668 6.37769 7.57025 6.3529 8.16827C6.27592 8.19653 6.21734 8.25438 6.17786 8.33491C6.13146 8.42381 6.10938 8.52438 6.10938 8.63456C6.10938 8.73839 6.12839 8.83685 6.16694 8.92917L6.16822 8.93225L6.16977 8.9352C6.20701 9.0062 6.25838 9.06018 6.32479 9.08885C6.32505 9.4543 6.32792 9.76924 6.3334 10.0336L6.33344 10.0354L6.33356 10.0373C6.34112 10.1458 6.39589 10.2318 6.48941 10.2908L6.49047 10.2915L6.49155 10.2921C6.58418 10.3465 6.68659 10.3733 6.79709 10.3733C6.91423 10.3733 7.02286 10.3431 7.12127 10.2825L7.12244 10.2817C7.23936 10.2067 7.29528 10.0892 7.29528 9.94356L7.28665 9.58065L7.29401 9.12759L9.63255 9.16914V9.75782C9.63255 9.90769 9.68647 10.0387 9.79196 10.147L9.79362 10.1487L9.79538 10.1502C9.90635 10.2508 10.0363 10.3026 10.1824 10.3026H10.4236C10.5758 10.3026 10.7071 10.2475 10.8132 10.139C10.9197 10.0361 10.9735 9.9074 10.9735 9.75782C10.9735 8.94863 10.9505 8.20982 10.9044 7.54148C10.8583 6.86667 10.7803 6.27327 10.6703 5.76175L10.67 5.76061L10.6697 5.75947C10.4958 5.05705 10.2413 4.53177 9.89989 4.19362ZM8.4184 4.82513C8.66353 4.81507 8.90934 4.98668 9.0067 5.16554L9.00751 5.16699L9.02246 5.19303C9.13494 5.38875 9.27826 5.63816 9.35825 6.04877L9.35848 6.04992L9.35873 6.05106C9.49107 6.6341 9.5731 7.35412 9.60402 8.21217L7.33328 8.17083C7.35107 7.8087 7.38132 7.44126 7.42401 7.06874C7.46968 6.66437 7.53241 6.2899 7.61208 5.94522C7.69144 5.60189 7.79252 5.32998 7.9135 5.12674L7.91396 5.12595C8.02753 4.92987 8.23431 4.8252 8.38944 4.8252H8.41684L8.4184 4.82513Z" fill="white" stroke="white" stroke-width="0.0760021"/>
<path d="M3.14241 11.043C3.38244 11.3961 3.63134 11.8124 3.88905 12.2923L3.88904 12.2923L3.88957 12.2933C4.17147 12.8007 4.38722 13.3074 4.53722 13.8134C4.57146 13.9381 4.6481 14.0283 4.76532 14.0758C4.87981 14.1276 5.00391 14.153 5.1366 14.153C5.32999 14.153 5.51732 14.1022 5.69767 14.0024C5.89313 13.9092 6.00915 13.7691 6.00915 13.5792H6.00992L6.00838 13.5684L5.99416 13.4689L5.99522 13.4687L5.99133 13.4565C5.78081 12.7963 5.48431 12.1555 5.10213 11.5344C4.74462 10.9294 4.41277 10.429 4.10655 10.0339C4.69383 9.14587 5.13266 8.13849 5.42355 7.01248C5.71827 5.87163 5.90411 4.85266 5.98043 3.95597L5.9807 3.956V3.94953V3.90686C5.9807 3.82032 5.95583 3.74148 5.90536 3.67321C5.85575 3.60609 5.78424 3.55293 5.69608 3.51132C5.53337 3.43013 5.35595 3.38991 5.16505 3.38991C4.98424 3.38991 4.81668 3.42513 4.66352 3.49661C4.58301 3.53418 4.51776 3.5848 4.47284 3.65068C4.42773 3.71684 4.40641 3.79362 4.4063 3.87774M3.14241 11.043L4.40631 3.87714C4.4063 3.87734 4.4063 3.87754 4.4063 3.87774M3.14241 11.043C2.97957 11.1659 2.80669 11.2692 2.62383 11.3527V11.3529V11.3531V11.3534V11.3536V11.3539V11.3541V11.3544V11.3546V11.3549V11.3551V11.3554V11.3556V11.3558V11.3561V11.3563V11.3566V11.3568V11.3571V11.3573V11.3576V11.3578V11.3581V11.3583V11.3586V11.3588V11.3591V11.3593V11.3596V11.3598V11.3601V11.3603V11.3605V11.3608V11.361V11.3613V11.3615V11.3618V11.362V11.3623V11.3625V11.3628V11.363V11.3633V11.3635V11.3638V11.364V11.3643V11.3645V11.3648V11.365V11.3653V11.3655V11.3658V11.366V11.3663V11.3665V11.3668V11.3671V11.3673V11.3676V11.3678V11.3681V11.3683V11.3686V11.3688V11.3691V11.3693V11.3696V11.3698V11.3701V11.3703V11.3706V11.3708V11.3711V11.3713V11.3716V11.3718V11.3721V11.3724V11.3726V11.3729V11.3731V11.3734V11.3736V11.3739V11.3741V11.3744V11.3746V11.3749V11.3752V11.3754V11.3757V11.3759V11.3762V11.3764V11.3767V11.3769V11.3772V11.3775V11.3777V11.378V11.3782V11.3785V11.3787V11.379V11.3792V11.3795V11.3798V11.38V11.3803V11.3805V11.3808V11.381V11.3813V11.3816V11.3818V11.3821V11.3823V11.3826V11.3828V11.3831V11.3834V11.3836V11.3839V11.3841V11.3844V11.3847V11.3849V11.3852V11.3854V11.3857V11.386V11.3862V11.3865V11.3867V11.387V11.3873V11.3875V11.3878V11.388V11.3883V11.3886V11.3888V11.3891V11.3893V11.3896V11.3899V11.3901V11.3904V11.3906V11.3909V11.3912V11.3914V11.3917V11.392V11.3922V11.3925V11.3927V11.393V11.3933V11.3935V11.3938V11.3941V11.3943V11.3946V11.3948V11.3951V11.3954V11.3956V11.3959V11.3962V11.3964V11.3967V11.3969V11.3972V11.3975V11.3977V11.398V11.3983V11.3985V11.3988V11.3991V11.3993V11.3996V11.3999V11.4001V11.4004V11.4007V11.4009V11.4012V11.4015V11.4017V11.402V11.4023V11.4025V11.4028V11.403V11.4033V11.4036V11.4038V11.4041V11.4044V11.4047V11.4049V11.4052V11.4055V11.4057V11.406V11.4063V11.4065V11.4068V11.4071V11.4073V11.4076V11.4079V11.4081V11.4084V11.4087V11.4089V11.4092V11.4095V11.4097V11.41V11.4103V11.4106V11.4108V11.4111V11.4114V11.4116V11.4119V11.4122V11.4124V11.4127V11.413V11.4133V11.4135V11.4138V11.4141V11.4143V11.4146V11.4149V11.4152V11.4154V11.4157V11.416V11.4162V11.4165V11.4168V11.4171V11.4173V11.4176V11.4179V11.4181V11.4184V11.4187V11.419V11.4192V11.4195V11.4198V11.4201V11.4203V11.4206V11.4209V11.4212V11.4214V11.4217V11.422V11.4222V11.4225V11.4228V11.4231V11.4233V11.4236V11.4239V11.4242V11.4244V11.4247V11.425V11.4253V11.4255V11.4258V11.4261V11.4264V11.4266V11.4269V11.4272V11.4275V11.4278V11.428V11.4283V11.4286V11.4287C2.67119 12.1107 2.71855 12.8021 2.7659 13.5029L2.76625 13.5081H2.76607V13.5223C2.76607 13.725 2.59447 13.8709 2.3347 13.9767L2.33243 13.9776L2.33242 13.9776C2.06788 14.0756 1.79342 14.1246 1.50948 14.1246C1.30273 14.1246 1.11721 14.0902 0.954584 14.0194C0.870365 13.9876 0.800052 13.9422 0.747687 13.8811C0.694554 13.8191 0.663059 13.7446 0.651824 13.6603L0.651192 13.6556L0.651342 13.6556C0.537467 12.0234 0.461551 10.3817 0.423594 8.73054L0.42357 8.72953L0.423577 8.72953L0.409353 7.26446L0.409346 7.26372C0.409349 6.14348 0.43783 5.03743 0.494797 3.94557L0.494854 3.94447L0.494862 3.94447C0.500591 3.85854 0.529712 3.78161 0.582993 3.71649C0.635638 3.65214 0.708864 3.60294 0.79779 3.56632C0.970164 3.49534 1.17006 3.46103 1.39569 3.46103C1.67048 3.46103 1.93577 3.51014 2.19107 3.60834C2.44321 3.70531 2.60961 3.84649 2.60961 4.0491V4.06332V4.06739L2.6095 4.06739C2.55269 5.12794 2.52427 6.198 2.52427 7.27757C2.52427 7.27769 2.52427 7.27782 2.52427 7.27795L2.53849 8.69959L2.53849 8.70035C2.53849 9.01976 2.54559 9.34634 2.55979 9.6801C2.98614 9.29959 3.32897 8.78462 3.58661 8.13193L3.5868 8.13145C3.87863 7.40659 4.08572 6.65825 4.2081 5.88632C4.33096 5.1113 4.39685 4.44196 4.4063 3.87774M3.14241 11.043L4.4063 3.87774" fill="white" stroke="white" stroke-width="0.152004"/>
<mask id="path-8-inside-1_615_6739" fill="white">
<path d="M8.79085 0.891298L9.58183 2.29142V2.29033C9.60594 2.31387 9.60594 2.35056 9.60594 2.3867V2.3867C9.60594 2.45898 9.56894 2.53071 9.4955 2.57999L9.1485 2.80887C9.09917 2.84501 9.04984 2.85706 9.00051 2.85706C8.93828 2.85706 8.88895 2.83351 8.85196 2.78533C8.5683 2.39874 7.9382 1.38575 7.69099 1.15577C7.65399 1.11963 7.62988 1.07145 7.62988 1.02326V0.987122C7.64166 0.914843 7.67922 0.866658 7.74032 0.818472C7.95054 0.673368 8.14842 0.576996 8.33342 0.576996C8.50664 0.576996 8.66696 0.66132 8.79085 0.891298Z"/>
</mask>
<path d="M8.79085 0.891298L9.58183 2.29142V2.29033C9.60594 2.31387 9.60594 2.35056 9.60594 2.3867V2.3867C9.60594 2.45898 9.56894 2.53071 9.4955 2.57999L9.1485 2.80887C9.09917 2.84501 9.04984 2.85706 9.00051 2.85706C8.93828 2.85706 8.88895 2.83351 8.85196 2.78533C8.5683 2.39874 7.9382 1.38575 7.69099 1.15577C7.65399 1.11963 7.62988 1.07145 7.62988 1.02326V0.987122C7.64166 0.914843 7.67922 0.866658 7.74032 0.818472C7.95054 0.673368 8.14842 0.576996 8.33342 0.576996C8.50664 0.576996 8.66696 0.66132 8.79085 0.891298Z" fill="white"/>
<path d="M9.58183 2.29142L9.44949 2.36619L9.73384 2.86952V2.29142H9.58183ZM8.79085 0.891298L8.657 0.963402L8.65851 0.966064L8.79085 0.891298ZM7.74032 0.818472L7.6538 0.693122L7.6462 0.699116L7.74032 0.818472ZM7.62988 0.987122L7.47986 0.962686L7.47788 0.974824V0.987122H7.62988ZM7.69099 1.15577L7.58474 1.26454L7.58746 1.26707L7.69099 1.15577ZM8.85196 2.78533L8.72937 2.87527L8.73139 2.8779L8.85196 2.78533ZM9.1485 2.80887L9.06471 2.68183L9.05867 2.68625L9.1485 2.80887ZM9.4955 2.57999L9.5792 2.70688L9.58021 2.70621L9.4955 2.57999ZM9.58183 2.29033L9.68805 2.18159L9.42983 1.92937V2.29033H9.58183ZM9.71418 2.21666L8.9232 0.816531L8.65851 0.966064L9.44949 2.36619L9.71418 2.21666ZM8.92467 0.819208C8.85348 0.687053 8.76646 0.586915 8.66305 0.520183C8.55865 0.452814 8.44598 0.424992 8.33342 0.424992V0.729C8.39407 0.729 8.44818 0.74334 8.49822 0.775627C8.54924 0.808553 8.60433 0.865565 8.65703 0.963388L8.92467 0.819208ZM8.33342 0.424992C8.09956 0.424992 7.86897 0.544973 7.65397 0.693376L7.82667 0.943569C8.03211 0.801762 8.19729 0.729 8.33342 0.729V0.424992ZM7.6462 0.699116C7.56759 0.761101 7.49987 0.839821 7.47986 0.962686L7.77991 1.01156C7.78344 0.989865 7.79084 0.972215 7.83444 0.937829L7.6462 0.699116ZM7.47788 0.987122V1.02326H7.78189V0.987122H7.47788ZM7.47788 1.02326C7.47788 1.12117 7.52544 1.20656 7.58477 1.26451L7.7972 1.04703C7.7908 1.04079 7.78648 1.03436 7.78405 1.0292C7.78162 1.02406 7.78189 1.022 7.78189 1.02326H7.47788ZM7.58746 1.26707C7.63759 1.31371 7.71578 1.40936 7.81443 1.54322C7.91088 1.6741 8.02033 1.83238 8.13198 1.99711C8.35285 2.32298 8.58538 2.67897 8.7294 2.87525L8.97451 2.6954C8.83488 2.50511 8.61053 2.1613 8.38363 1.82654C8.2714 1.66095 8.15925 1.49869 8.05916 1.36287C7.96128 1.23004 7.86799 1.11283 7.79452 1.04448L7.58746 1.26707ZM8.73139 2.8779C8.79842 2.9652 8.89315 3.00906 9.00051 3.00906V2.70505C8.98894 2.70505 8.98411 2.70298 8.98272 2.70231C8.98151 2.70173 8.97803 2.69993 8.97252 2.69275L8.73139 2.8779ZM9.00051 3.00906C9.07778 3.00906 9.15963 2.98915 9.23833 2.93149L9.05867 2.68625C9.04739 2.69452 9.03802 2.69873 9.03013 2.70114C9.02204 2.70361 9.01261 2.70505 9.00051 2.70505V3.00906ZM9.2322 2.93576L9.5792 2.70688L9.41181 2.4531L9.06481 2.68199L9.2322 2.93576ZM9.58021 2.70621C9.69226 2.63101 9.75794 2.51365 9.75794 2.3867H9.45393C9.45393 2.4043 9.44562 2.4304 9.4108 2.45377L9.58021 2.70621ZM9.75794 2.3867V2.3867H9.45393V2.3867H9.75794ZM9.75794 2.3867C9.75794 2.37168 9.75839 2.33924 9.75249 2.30669C9.74609 2.27132 9.73023 2.22279 9.68805 2.18159L9.47562 2.39907C9.46711 2.39076 9.4614 2.3818 9.45785 2.37415C9.45453 2.36697 9.45354 2.36189 9.45335 2.36089C9.45319 2.35999 9.45349 2.36125 9.45369 2.36614C9.45391 2.37126 9.45393 2.37708 9.45393 2.3867H9.75794ZM9.42983 2.29033V2.29142H9.73384V2.29033H9.42983Z" fill="white" mask="url(#path-8-inside-1_615_6739)"/>
</svg>
