<svg width="144" height="60" viewBox="0 0 144 60" fill="none" xmlns="http://www.w3.org/2000/svg">
<path d="M60.7647 16.1382C60.7647 14.8539 60.0878 13.5114 58.8646 13.5114L49.3919 14.2437C48.2934 14.3047 47.8052 15.2838 47.8052 16.3213C47.8052 17.6693 48.5958 19.195 49.8191 19.195L50.5541 19.1312C50.6152 21.8856 51.4695 29.4055 51.4695 36.8006C51.4695 45.5437 50.2462 54.101 44.9898 54.2869H44.6209C41.0149 54.2869 40.0995 51.6573 40.0995 48.4785V47.4993C40.0995 46.1567 36.6738 44.7504 34.23 44.7504C32.8237 44.7504 31.7225 45.1776 31.6587 46.276V47.0111C31.6587 54.1621 37.7112 59.3603 44.6847 59.3603H45.1729C57.2779 58.9913 59.5996 45.9127 59.5996 33.1363C59.5996 27.9992 59.1725 22.801 58.9284 18.5847C60.2127 18.5237 60.7647 17.3615 60.7647 16.1382Z" fill="#EA4E25"/>
<path d="M79.9544 14.8539C79.1583 14.7346 78.3622 14.6708 77.6327 14.6708C66.5068 14.6708 61.3696 28.3015 61.3696 36.4344C61.3696 44.5673 66.3237 58.2618 77.8158 58.2618L79.1001 58.198C87.7794 57.4657 94.6863 47.993 94.6863 36.4344C94.6863 24.8758 88.2704 16.0799 79.9544 14.8566V14.8539ZM79.7103 51.3521C75.2444 51.3521 70.5982 46.0957 70.5982 36.4316C70.5982 26.7675 75.2444 21.5777 79.7103 21.5777C84.1762 21.5777 88.2038 26.2877 88.2038 36.4316C88.2038 46.5756 83.9876 51.3521 79.7103 51.3521ZM84.8419 1.34247C83.8017 0.610174 82.7643 0.124756 81.8489 0.124756C80.9946 0.124756 80.2567 0.551928 79.6465 1.7114L75.6716 8.80411C75.6133 8.92894 75.5523 9.11201 75.5523 9.29231C75.5523 9.66123 75.7354 10.0274 76.1043 10.2715L77.8158 11.4365C78.0599 11.6196 78.304 11.6806 78.5481 11.6806C78.856 11.6806 79.1 11.5558 79.2831 11.3117C80.6867 9.35611 83.8045 4.21895 85.0916 3.06226C85.2108 2.87918 85.3357 2.63508 85.3357 2.38544V2.20514C85.2719 1.83622 85.0916 1.59212 84.8419 1.34525V1.34247Z" fill="#EA4E25"/>
<path d="M116.877 14.5516H116.816C115.498 14.6015 114.181 14.6403 112.863 14.6709C109.105 14.7596 105.338 14.7957 101.535 14.7957C99.0191 14.7957 96.481 14.7957 93.9318 14.7568H93.9263C92.753 14.7374 91.5851 14.7125 90.409 14.6736H90.348C89.183 14.6736 88.5728 15.8969 88.5728 17.1202C88.5728 18.3434 89.1858 19.686 90.348 19.747C93.4603 19.8718 96.5198 19.9301 99.6376 19.9301C99.2105 28.002 98.7833 34.9699 98.7833 42.3705C98.7833 46.8918 98.9026 51.6018 99.3353 56.7335C99.3935 57.8374 101.349 58.3839 103.488 58.3839C105.934 58.3839 108.567 57.5933 108.567 56.126V56.0012C108.015 48.8502 107.712 41.7574 107.712 34.6647C107.712 29.7106 107.832 24.8231 108.076 19.869C111.074 19.808 114.009 19.7442 116.944 19.6249C118.103 19.5639 118.655 18.2768 118.655 16.9953C118.655 15.7138 118.103 14.5544 116.88 14.5544L116.877 14.5516ZM93.4742 18.7401C92.6475 18.7401 91.9818 18.0744 91.9818 17.2478C91.9818 16.4211 92.6475 15.7554 93.4742 15.7554C93.5574 15.7554 93.6433 15.761 93.7238 15.7804C94.4311 15.8941 94.9665 16.5071 94.9665 17.2478C94.9665 18.0744 94.3008 18.7401 93.4742 18.7401ZM113.313 18.7401C112.492 18.7401 111.82 18.0744 111.82 17.2478C111.82 16.5016 112.372 15.8858 113.082 15.7748C113.157 15.761 113.232 15.7554 113.313 15.7554C114.139 15.7554 114.805 16.4211 114.805 17.2478C114.805 18.0744 114.139 18.7401 113.313 18.7401Z" fill="#EA4E25"/>
<path d="M141.206 27.8161C138.948 18.0994 133.567 13.8776 128.857 13.8776C128.125 13.8776 127.39 14.0024 126.718 14.1855C117.917 16.8123 115.468 32.343 114.857 44.7505C113.698 44.8753 113.146 46.2178 113.146 47.5659C113.146 48.914 113.637 50.1927 114.677 50.3148C114.677 53.0054 114.677 55.3881 114.735 57.2217C114.735 58.3811 116.142 59.0579 117.484 59.0579C118.952 59.0579 120.477 58.3229 120.477 56.6114L120.416 54.1039L120.477 50.4341L134.904 50.742V55.3271C134.904 57.0968 136.435 58.5642 138.266 58.5642H139.983C140.898 58.5642 141.694 58.2619 142.366 57.5906C143.037 56.9776 143.345 56.2425 143.345 55.3271C143.345 44.1957 142.793 34.784 141.201 27.8161H141.206ZM120.732 44.8753C121.279 34.2986 123.054 20.7844 128.247 20.7844H128.43C130.08 20.9092 131.731 23.414 132.957 29.5914C133.936 33.7438 134.482 39.0058 134.732 45.1776L120.732 44.8753ZM131.431 8.68491L127.517 1.59218C126.904 0.42717 126.111 0 125.254 0C124.338 0 123.359 0.488198 122.319 1.22327C122.017 1.46737 121.831 1.71146 121.773 2.07761V2.26068C121.773 2.50478 121.892 2.74888 122.075 2.93196C123.298 4.09697 126.416 9.22858 127.82 11.1869C128.003 11.431 128.247 11.5503 128.555 11.5503C128.799 11.5503 129.043 11.4893 129.287 11.3062L131.004 10.1467C131.367 9.89708 131.55 9.5337 131.55 9.16756C131.55 8.98448 131.55 8.79864 131.431 8.67937V8.68491Z" fill="#EA4E25"/>
<path fill-rule="evenodd" clip-rule="evenodd" d="M94.4665 17.4168C94.4665 17.4166 94.4665 17.4164 93.4827 17.3116C92.4989 17.2069 92.499 17.2066 92.499 17.2062L92.4991 17.2051L92.4995 17.2021L92.5006 17.1922L92.5045 17.1576C92.5079 17.1281 92.513 17.0857 92.5199 17.0315C92.5336 16.923 92.5547 16.7666 92.5843 16.5691C92.6435 16.1744 92.7374 15.6143 92.8771 14.9437C93.1556 13.6067 93.6201 11.8104 94.3647 10.003C95.8194 6.472 98.5428 2.45862 103.43 2.45862C108.319 2.45862 111.026 6.47496 112.464 10.0066C113.201 11.8144 113.657 13.6109 113.929 14.948C114.066 15.6186 114.157 16.1787 114.215 16.5735C114.243 16.771 114.264 16.9274 114.277 17.0359C114.284 17.0902 114.289 17.1325 114.292 17.162L114.296 17.1966L114.297 17.2065L114.297 17.2096L114.297 17.2107C114.297 17.2111 114.297 17.2114 113.313 17.3116C112.329 17.4119 112.329 17.4121 112.329 17.4123L112.329 17.4117L112.328 17.4065L112.325 17.3817C112.323 17.3588 112.319 17.3232 112.313 17.276C112.301 17.1814 112.283 17.04 112.257 16.8584C112.204 16.495 112.119 15.972 111.991 15.3429C111.733 14.0806 111.307 12.4111 110.632 10.753C109.247 7.3528 107.012 4.43729 103.43 4.43729C99.8454 4.43729 97.5953 7.35575 96.1942 10.7566C95.511 12.4151 95.0772 14.0848 94.8142 15.3472C94.6832 15.9763 94.5956 16.4993 94.5411 16.8628C94.5138 17.0444 94.4948 17.1858 94.4828 17.2804C94.4769 17.3277 94.4726 17.3632 94.4699 17.3862L94.4671 17.411L94.4665 17.4162L94.4665 17.4168Z" fill="#FFCAC0"/>
<path fill-rule="evenodd" clip-rule="evenodd" d="M40.8507 16.3474C39.4123 14.9226 37.4344 13.3211 34.3363 14.0199C34.221 14.0459 34.0968 14.0723 33.9684 14.0995C33.6272 14.172 33.2556 14.2509 32.937 14.3471L32.9306 14.3491L32.9242 14.3513C31.0563 14.9995 29.6019 16.4007 28.5506 18.5061C27.5114 20.562 26.7552 22.9737 26.2773 25.7361L26.2769 25.7385C25.8399 28.3805 25.5676 30.9989 25.46 33.5937C25.126 33.7164 24.8718 33.9674 24.7005 34.3168C24.4991 34.7026 24.4033 35.1389 24.4033 35.617C24.4033 36.0675 24.4858 36.4947 24.6531 36.8954L24.6586 36.9087L24.6654 36.9215C24.827 37.2296 25.0499 37.4638 25.338 37.5882C25.3392 39.1739 25.3516 40.5405 25.3754 41.6875L25.3755 41.6955L25.3761 41.7035C25.4089 42.1745 25.6465 42.5474 26.0523 42.8038L26.0569 42.8067L26.0616 42.8094C26.4636 43.0452 26.9079 43.1617 27.3874 43.1617C27.8956 43.1617 28.367 43.0304 28.794 42.7674L28.7991 42.7641C29.3064 42.4386 29.549 41.9287 29.549 41.2969L29.5116 39.7221L29.5435 37.7563L39.6907 37.9366V40.4909C39.6907 41.1412 39.9246 41.7095 40.3824 42.1794L40.3896 42.1868L40.3972 42.1937C40.8787 42.6298 41.4427 42.8547 42.0766 42.8547H43.1233C43.7834 42.8547 44.3534 42.6156 44.8138 42.1448C45.2758 41.6983 45.5092 41.1399 45.5092 40.4909C45.5092 36.9798 45.4094 33.774 45.2094 30.8741C45.0092 27.946 44.6711 25.3712 44.1934 23.1516L44.1923 23.1467L44.1911 23.1418C43.4363 20.0939 42.3319 17.8147 40.8507 16.3474ZM34.4224 19.0876C35.486 19.0439 36.5526 19.7885 36.9751 20.5646L36.9786 20.5709L37.0435 20.6839C37.5315 21.5332 38.1534 22.6154 38.5005 24.397L38.5014 24.402L38.5026 24.407C39.0768 26.9368 39.4327 30.0611 39.5669 33.7842L29.714 33.6048C29.7911 32.0335 29.9224 30.4392 30.1076 28.8228C30.3058 27.0682 30.578 25.4433 30.9237 23.9477C31.268 22.458 31.7066 21.2781 32.2316 20.3963L32.2336 20.3929C32.7264 19.542 33.6236 19.0879 34.2967 19.0879H34.4156L34.4224 19.0876Z" fill="#EA4E25" stroke="#EA4E25" stroke-width="0.195551"/>
<path d="M20.1822 59.2336C19.6473 59.2336 19.1535 59.1308 18.7009 58.925C18.2894 58.7605 18.022 58.4519 17.8986 57.9993C17.2402 55.7774 16.2939 53.5555 15.0595 51.3336C13.8662 49.1117 12.7141 47.1984 11.6032 45.5937C10.7803 46.2521 9.89564 46.787 8.94928 47.1984C8.94928 47.363 8.94928 47.5482 8.94928 47.7539C9.15501 50.7164 9.36074 53.7201 9.56647 56.7649V56.8266C9.56647 57.4849 9.01099 58.0404 7.90005 58.493C6.78911 58.9045 5.63702 59.1102 4.44378 59.1102C3.57971 59.1102 2.81851 58.9662 2.16017 58.6782C1.50183 58.4313 1.13152 57.9993 1.04923 57.3821C0.555472 50.3049 0.226304 43.1867 0.0617191 36.0272L0 29.6702C0 24.8149 0.123438 20.0214 0.370315 15.2896C0.411461 14.6724 0.781776 14.2198 1.48126 13.9318C2.18074 13.6438 3.00366 13.4998 3.95003 13.4998C5.10212 13.4998 6.21306 13.7055 7.28286 14.1169C8.35266 14.5284 8.88756 15.0633 8.88756 15.7216V15.7834C8.64068 20.3917 8.51724 25.0412 8.51724 29.7319L8.57896 35.9038C8.57896 37.5085 8.62011 39.1544 8.7024 40.8413C10.842 39.1132 12.529 36.6856 13.7634 33.5585C15.0389 30.3902 15.9441 27.1191 16.479 23.7451C17.0139 20.3712 17.3019 17.4498 17.3431 14.981C17.3431 14.3638 17.6517 13.9112 18.2689 13.6232C18.8861 13.3352 19.565 13.1912 20.3056 13.1912C21.0874 13.1912 21.8074 13.3557 22.4658 13.6849C23.1653 14.0141 23.515 14.4873 23.515 15.1045V15.2896C23.1858 19.1573 22.3835 23.56 21.1079 28.4975C19.8324 33.435 17.8986 37.8377 15.3063 41.7054C16.6642 43.4335 18.1454 45.6554 19.7501 48.3711C21.396 51.0456 22.6715 53.8024 23.5767 56.6414L23.6384 57.0735C23.6384 57.7318 23.2475 58.2461 22.4658 58.6165C21.7251 59.0279 20.9639 59.2336 20.1822 59.2336Z" fill="#EA4E25"/>
<path d="M36.0371 2.02339L39.4692 8.09865V8.0939C39.5738 8.19606 39.5738 8.35524 39.5738 8.51205V8.51206C39.5738 8.82568 39.4132 9.13693 39.0946 9.35076L37.5889 10.3439C37.3749 10.5007 37.1608 10.553 36.9468 10.553C36.6768 10.553 36.4627 10.4508 36.3022 10.2417C35.0714 8.56433 32.3373 4.16886 31.2647 3.17097C31.1041 3.01416 30.9995 2.80507 30.9995 2.59599V2.43918C31.0506 2.12555 31.2136 1.91648 31.4787 1.70739C32.3909 1.07777 33.2495 0.659607 34.0522 0.659607C34.8038 0.659607 35.4995 1.0255 36.0371 2.02339Z" fill="#EA4E25"/>
</svg>
