<svg width="19" height="19" viewBox="0 0 19 19" fill="none" xmlns="http://www.w3.org/2000/svg">
<path fill-rule="evenodd" clip-rule="evenodd" d="M2.5 0.5H16.5C17.605 0.5 18.5 1.395 18.5 2.5V16.5C18.5 17.605 17.605 18.5 16.5 18.5H2.5C1.395 18.5 0.5 17.605 0.5 16.5V2.5C0.5 1.395 1.395 0.5 2.5 0.5ZM3.977 14.5H6.5V7.5H3.977V14.5ZM5.194 6.217C4.423 6.217 3.908 5.703 3.908 5.017C3.908 4.331 4.422 3.817 5.279 3.817C6.05 3.817 6.565 4.331 6.565 5.017C6.565 5.703 6.051 6.217 5.194 6.217ZM13.058 14.5H15.5V10.674C15.5 8.477 14.523 7.5 13.302 7.5C12.081 7.5 11.43 7.907 11.105 8.477V7.5H8.582V14.5H11.105V10.674C11.105 9.535 11.919 9.372 12.163 9.372C12.407 9.372 13.058 9.616 13.058 10.674V14.5Z" fill="black"/>
</svg>
